<svg width="90" height="35" viewBox="0 0 90 35" fill="none" xmlns="http://www.w3.org/2000/svg">
<path d="M11.1698 34.3C9.51651 34.3 7.99651 33.98 6.60985 33.34C5.24985 32.7 4.16985 31.8333 3.36985 30.74C2.56985 29.6467 2.16985 28.42 2.16985 27.06C2.16985 25.9667 2.47651 25.1133 3.08985 24.5C3.70318 23.86 4.43651 23.54 5.28985 23.54C6.08985 23.54 6.78318 23.7933 7.36985 24.3C7.95651 24.8067 8.24985 25.54 8.24985 26.5C6.83651 27.1933 6.12985 28.26 6.12985 29.7C6.12985 30.7933 6.58318 31.6867 7.48985 32.38C8.42318 33.0467 9.64985 33.38 11.1698 33.38C13.0898 33.38 14.6498 32.66 15.8498 31.22C17.0498 29.78 17.6498 27.7667 17.6498 25.18C17.6498 22.38 16.8498 20.22 15.2498 18.7C13.6498 17.1533 11.2898 16.2867 8.16985 16.1V15.22C10.9698 15.06 13.1432 14.3133 14.6898 12.98C16.2632 11.62 17.0498 9.79333 17.0498 7.5C17.0498 5.71333 16.5565 4.28667 15.5698 3.22C14.6098 2.15333 13.3165 1.62 11.6898 1.62C10.2232 1.62 9.06318 1.87333 8.20985 2.38C7.38318 2.86 6.96985 3.54 6.96985 4.42C6.96985 5.83333 7.63651 6.84667 8.96985 7.46C8.96985 8.36667 8.68985 9.07333 8.12985 9.58C7.59651 10.06 6.94318 10.3 6.16985 10.3C5.36985 10.3 4.67651 9.99333 4.08985 9.38C3.50318 8.76666 3.20985 7.95333 3.20985 6.94C3.20985 5.74 3.62318 4.67333 4.44985 3.74C5.27651 2.78 6.36985 2.03333 7.72985 1.5C9.11651 0.966665 10.5832 0.699998 12.1298 0.699998C15.1698 0.699998 17.5432 1.31333 19.2498 2.54C20.9565 3.76666 21.8098 5.48666 21.8098 7.7C21.8098 10.02 20.9698 11.82 19.2898 13.1C17.6365 14.3533 15.2232 15.1933 12.0498 15.62V15.74C15.3832 15.9 18.0632 16.7933 20.0898 18.42C22.1432 20.02 23.1698 22.2733 23.1698 25.18C23.1698 26.8067 22.7165 28.3133 21.8098 29.7C20.9298 31.0867 19.5832 32.2067 17.7698 33.06C15.9832 33.8867 13.7832 34.3 11.1698 34.3ZM40.8145 34.3C38.4945 34.3 36.4679 33.6733 34.7345 32.42C33.0012 31.1667 31.6545 29.2867 30.6945 26.78C29.7345 24.2467 29.2545 21.1533 29.2545 17.5C29.2545 13.8467 29.7345 10.7667 30.6945 8.26C31.6545 5.72667 33.0012 3.83333 34.7345 2.58C36.4679 1.32666 38.4945 0.699998 40.8145 0.699998C43.1345 0.699998 45.1612 1.32666 46.8945 2.58C48.6279 3.83333 49.9745 5.72667 50.9345 8.26C51.8945 10.7667 52.3745 13.8467 52.3745 17.5C52.3745 21.1533 51.8945 24.2467 50.9345 26.78C49.9745 29.2867 48.6279 31.1667 46.8945 32.42C45.1612 33.6733 43.1345 34.3 40.8145 34.3ZM40.8145 33.38C42.8145 33.38 44.3879 32.4067 45.5345 30.46C46.6812 28.5133 47.2545 25.4733 47.2545 21.34V13.62C47.2545 9.51333 46.6812 6.48667 45.5345 4.54C44.3879 2.59333 42.8145 1.62 40.8145 1.62C38.8145 1.62 37.2412 2.59333 36.0945 4.54C34.9479 6.48667 34.3745 9.51333 34.3745 13.62V21.34C34.3745 25.4467 34.9479 28.4867 36.0945 30.46C37.2412 32.4067 38.8145 33.38 40.8145 33.38ZM64.1861 18.7C62.2928 18.7 60.7594 17.9533 59.5861 16.46C58.4394 14.94 57.8661 12.78 57.8661 9.98C57.8661 7.18 58.4394 5.03333 59.5861 3.54C60.7594 2.04666 62.2928 1.3 64.1861 1.3C66.1061 1.3 67.6394 2.04666 68.7861 3.54C69.9594 5.03333 70.5461 7.18 70.5461 9.98C70.5461 12.78 69.9594 14.94 68.7861 16.46C67.6394 17.9533 66.1061 18.7 64.1861 18.7ZM63.9061 33.5L79.9061 1.5H81.9461L65.9861 33.5H63.9061ZM64.1861 17.82C65.2528 17.82 66.0528 17.3667 66.5861 16.46C67.1461 15.5533 67.4261 14.0733 67.4261 12.02V7.94C67.4261 5.88667 67.1461 4.40667 66.5861 3.5C66.0528 2.59333 65.2528 2.14 64.1861 2.14C63.1461 2.14 62.3461 2.59333 61.7861 3.5C61.2261 4.40667 60.9461 5.88667 60.9461 7.94V12.02C60.9461 14.0733 61.2261 15.5533 61.7861 16.46C62.3461 17.3667 63.1461 17.82 64.1861 17.82ZM81.6661 33.7C79.7461 33.7 78.1994 32.9533 77.0261 31.46C75.8794 29.94 75.3061 27.78 75.3061 24.98C75.3061 22.18 75.8794 20.0333 77.0261 18.54C78.1994 17.0467 79.7461 16.3 81.6661 16.3C83.5594 16.3 85.0794 17.0467 86.2261 18.54C87.3994 20.0333 87.9861 22.18 87.9861 24.98C87.9861 27.78 87.3994 29.94 86.2261 31.46C85.0794 32.9533 83.5594 33.7 81.6661 33.7ZM81.6661 32.82C82.7061 32.82 83.5061 32.3667 84.0661 31.46C84.6261 30.5533 84.9061 29.0733 84.9061 27.02V22.94C84.9061 20.8867 84.6261 19.4067 84.0661 18.5C83.5061 17.5933 82.7061 17.14 81.6661 17.14C80.5994 17.14 79.7861 17.5933 79.2261 18.5C78.6928 19.4067 78.4261 20.8867 78.4261 22.94V27.02C78.4261 29.0733 78.6928 30.5533 79.2261 31.46C79.7861 32.3667 80.5994 32.82 81.6661 32.82Z" fill="white"/>
</svg>
